<svg xmlns="http://www.w3.org/2000/svg" id="logo" viewBox="0 0 64 64"><defs><style>.cls-2{fill:#fff}</style></defs><path id="bg" d="M0 0h64v64H0z" style="fill:#2970ff"/><path id="r" d="M43.21 40.24 51 48h-7.65L30.5 35.2h8a6.4 6.4 0 1 0 0-12.8h-2.6L29.43 16h8.72A12.82 12.82 0 0 1 51 28.8c0 5.2-2.3 9.26-7.79 11.44" class="cls-2"/><path id="l" d="M20.79 23.76 13 16h7.66l12.85 12.8h-7.95a6.4 6.4 0 1 0 0 12.8h2.59l6.42 6.4h-8.72A12.82 12.82 0 0 1 13 35.2c0-5.2 2.3-9.26 7.79-11.44" class="cls-2"/></svg>
